<svg width="12" height="23" viewBox="0 0 12 23" fill="none" xmlns="http://www.w3.org/2000/svg">
<path d="M11.7081 12.2075L1.70806 22.2075C1.61515 22.3004 1.50485 22.3741 1.38345 22.4244C1.26206 22.4747 1.13195 22.5006 1.00056 22.5006C0.869161 22.5006 0.739053 22.4747 0.61766 22.4244C0.496267 22.3741 0.385966 22.3004 0.293056 22.2075C0.200145 22.1146 0.126445 22.0043 0.0761623 21.8829C0.0258797 21.7615 0 21.6314 0 21.5C0 21.3686 0.0258797 21.2385 0.0761623 21.1171C0.126445 20.9957 0.200145 20.8854 0.293056 20.7925L9.58681 11.5L0.293056 2.20751C0.105415 2.01987 -1.97712e-09 1.76537 0 1.50001C1.97712e-09 1.23464 0.105415 0.980147 0.293056 0.792507C0.480696 0.604866 0.735192 0.499451 1.00056 0.499451C1.26592 0.499451 1.52042 0.604866 1.70806 0.792507L11.7081 10.7925C11.801 10.8854 11.8748 10.9957 11.9251 11.1171C11.9754 11.2385 12.0013 11.3686 12.0013 11.5C12.0013 11.6314 11.9754 11.7615 11.9251 11.8829C11.8748 12.0043 11.801 12.1146 11.7081 12.2075Z" fill="black"/>
</svg>
